<svg width="239" height="24" viewBox="0 0 239 24" fill="none" xmlns="http://www.w3.org/2000/svg">
<g clip-path="url(#clip0_5_37)">
<g clip-path="url(#clip1_5_37)">
<path d="M237.818 6.02661L232.336 0.544865C231.811 0.0198646 230.938 0.0667396 230.487 0.65699C225.129 7.6738 216.247 12.2638 206.194 12.2653C196.14 12.2638 187.258 7.6738 181.901 0.65699C181.45 0.0667396 180.576 0.0198646 180.051 0.544865L174.57 6.02661C173.822 6.7738 173.75 7.97118 174.422 8.78643C181.966 17.9406 193.387 23.7778 206.174 23.784V23.7844H206.194H206.214V23.784C219 23.7778 230.422 17.9406 237.966 8.78643C238.638 7.97118 238.565 6.7738 237.818 6.02661Z" fill="#093672"/>
<path d="M158.678 5.24615L153.914 5.23846C153.721 5.23846 153.536 5.31515 153.4 5.45146L152.139 6.71165C152.003 6.84796 151.926 7.03283 151.926 7.22558V7.9649C151.926 8.32152 152.215 8.61046 152.572 8.61046L159.349 8.60727C159.904 8.60727 160.355 9.05765 160.355 9.61302V14.3243C160.355 14.8797 159.904 15.3301 159.349 15.3301L159.346 15.3318H156.759C156.753 15.3318 156.747 15.3301 156.741 15.3301H152.594C152.225 15.3301 151.926 15.6286 151.926 15.9972V18.0243C151.926 18.3929 152.225 18.6918 152.594 18.6918H155.029H158.678C161.461 18.6918 163.716 16.436 163.716 13.6536V10.2833C163.716 7.5014 161.461 5.24615 158.678 5.24615Z" fill="#093672"/>
<path d="M79.4896 13.2522C79.5877 13.5212 79.8434 13.6999 80.1299 13.6999L82.2221 13.7012C82.688 13.7012 83.0127 13.2383 82.8534 12.8003L79.4896 3.99698C79.3929 3.73055 79.1394 3.55261 78.8553 3.55261H76.7829C76.3222 3.55261 76.0014 4.00973 76.1577 4.44248L79.4896 13.2522Z" fill="#093672"/>
<path d="M137.795 20.4124H135.689C135.339 20.4124 135.056 20.6959 135.056 21.0454V23.1512C135.056 23.5009 135.339 23.7844 135.689 23.7844H137.795C138.144 23.7844 138.428 23.5009 138.428 23.1512V21.0454C138.428 20.6959 138.144 20.4124 137.795 20.4124Z" fill="#093672"/>
<path d="M149.569 20.4124H144.145C143.781 20.4124 143.485 20.7083 143.485 21.0728V23.124C143.485 23.4889 143.781 23.7844 144.145 23.7844H149.569C149.933 23.7844 150.229 23.4889 150.229 23.124V21.0728C150.229 20.7083 149.933 20.4124 149.569 20.4124Z" fill="#093672"/>
<path d="M106.451 5.23847H105.059L109.676 0.850974C109.914 0.595974 109.733 0.180475 109.384 0.180475H105.972C105.707 0.180475 105.452 0.284912 105.264 0.470912L98.1604 7.47235C97.7412 7.89197 98.0384 8.60879 98.6313 8.60879L106.482 8.61047C107.389 8.6101 108.125 9.38916 108.125 10.2965V15.3562L95.6142 15.3477C95.0648 15.3477 94.6189 14.9018 94.6189 14.3521L94.6188 4.21285C94.6188 3.84816 94.3229 3.55247 93.9584 3.55247H91.9519C91.5869 3.55247 91.2914 3.84797 91.2914 4.21285L91.3043 13.9402C91.4356 16.5764 93.6091 18.6747 96.2779 18.6747L110.792 18.6833C111.156 18.6833 111.452 18.3875 111.452 18.0226L111.429 10.142C111.338 7.46747 109.147 5.23847 106.451 5.23847Z" fill="#093672"/>
<path d="M88.9452 3.55257H86.9388C86.5737 3.55257 86.2779 3.84844 86.2779 4.21294V14.4038C86.2779 14.9539 85.8327 15.3994 85.283 15.3994L78.1297 15.3904C77.9367 15.3904 77.7519 15.4669 77.6155 15.6032L76.3306 16.8276C76.1945 16.9639 76.1178 17.1488 76.1178 17.3415V18.0808C76.1178 18.4374 76.4065 18.7264 76.7634 18.7264H84.6189C87.2881 18.7264 89.4612 16.6281 89.5931 13.9918L89.6054 4.21294C89.6054 3.84844 89.3099 3.55257 88.9452 3.55257Z" fill="#093672"/>
<path d="M150.215 13.9055L150.228 9.2718C150.228 8.90299 149.929 8.60374 149.56 8.60374H147.53C147.161 8.60374 146.861 8.9028 146.861 9.2718L146.861 14.3225C146.861 14.8786 146.41 15.3294 145.854 15.3294H138.434V10.2789C138.434 7.02368 136.102 5.23849 133.374 5.23849H128.613C128.42 5.23849 128.236 5.31499 128.099 5.4513L126.839 6.71168C126.703 6.84799 126.626 7.03286 126.626 7.22561V7.96474C126.626 8.32136 126.915 8.61049 127.272 8.61049L134.045 8.60505C134.602 8.60505 135.053 9.05599 135.053 9.6123L135.067 15.3297L123.922 15.3545C123.554 15.3545 123.254 15.6534 123.254 16.0222V18.0579C123.254 18.4271 123.554 18.7265 123.923 18.7265H126.626V19.4105C126.626 19.9668 126.175 20.4179 125.618 20.4179L117.419 20.4129C116.917 20.4127 116.51 20.0056 116.51 19.5037L116.505 12.6502C116.505 12.281 116.206 11.9825 115.836 11.9825H113.806C113.437 11.9825 113.138 12.281 113.138 12.6502L113.151 18.7387C113.138 22.0983 114.824 23.7843 118.196 23.7843H125.014C128.002 23.7843 129.998 21.8699 129.998 18.7265H137.766C138.135 18.7265 138.434 18.4271 138.434 18.0579V17.0126L138.444 17.0212L139.919 18.5289C140.043 18.6552 140.212 18.7265 140.389 18.7265H145.182C147.883 18.7265 150.082 16.5727 150.215 13.9055Z" fill="#093672"/>
<path d="M47.3608 9.23114C47.3608 8.87283 47.0799 8.58258 46.7268 8.56252H44.6071C44.2539 8.58258 43.973 8.87283 43.973 9.23114V14.313C43.973 14.8728 43.5193 15.3268 42.9594 15.3268H37.1973L37.1878 15.3337L37.1883 9.18652C37.1883 8.82821 36.9073 8.53795 36.554 8.51789H34.4347C34.0815 8.53795 33.8004 8.82821 33.8004 9.18652L33.8 15.3268L26.9452 15.3196C27.0504 14.9351 27.1078 14.531 27.1081 14.1136C27.1104 11.6722 27.1115 9.13627 27.1115 9.13627C27.1115 8.78996 26.8314 8.5102 26.4856 8.5102H24.3656C24.02 8.5102 23.7399 8.79033 23.7399 9.13589L23.7472 14.3225C23.7472 14.8432 23.325 15.2655 22.8043 15.2655H20.0921C20.24 14.8453 20.3238 14.3902 20.3467 13.925C20.3595 13.5744 20.3595 9.1537 20.3595 9.1537C20.3595 8.80739 20.1174 8.5102 19.7722 8.5102H17.6116C17.2665 8.5102 16.9867 8.80739 16.9867 9.15258V14.3467C16.9867 14.8501 16.5787 15.2581 16.0753 15.2581L14.5395 15.2623C14.0441 15.2623 13.641 14.9092 13.6048 14.4226V9.03802C13.6048 8.74889 13.3704 8.51433 13.0811 8.51433L10.7521 8.5102C10.4626 8.5102 10.2283 8.74495 10.2285 9.03427L10.2346 18.8246C10.2346 19.9381 9.74565 20.3265 8.91127 20.3265H4.73208C3.8979 20.3265 3.4794 19.7836 3.4794 19.0672V12.5118C3.4794 12.1665 3.17677 11.8863 2.83139 11.8863H0.728771C0.383396 11.8863 0.103271 12.1665 0.103271 12.5118V18.9793C0.103271 21.5878 2.21789 23.7024 4.82639 23.7024H8.86289C11.4532 23.7024 13.6108 21.6026 13.6108 19.0123V18.3076C14.0276 18.6348 15.7597 18.6493 15.7597 18.6493C17.319 18.6493 17.8166 18.3971 18.5298 17.9623L19.14 18.5169C19.214 18.5908 19.314 18.6331 19.4186 18.6331L22.6036 18.6455C23.9388 18.6506 25.133 18.0682 25.9558 17.1436L27.3654 18.5529C27.4443 18.6315 27.5518 18.6765 27.6631 18.6765L36.5154 18.7147C36.8866 18.7147 37.1878 18.4136 37.1878 18.0421V17.0293L37.1904 17.0291L38.7517 18.59C38.8312 18.6699 38.9394 18.7147 39.0521 18.7147H42.2838C45.0013 18.7147 47.2138 16.578 47.3482 13.8935C47.3563 13.8519 47.3608 9.23114 47.3608 9.23114Z" fill="#093672"/>
<path d="M34.3819 6.85883H36.5119C36.8561 6.85883 37.1355 6.57983 37.1355 6.23501V4.10426C37.1355 3.75945 36.8561 3.48045 36.5119 3.48045H34.3819C34.0371 3.48045 33.7581 3.75945 33.7581 4.10426V6.23501C33.7581 6.57983 34.0371 6.85883 34.3819 6.85883Z" fill="#093672"/>
<path d="M63.512 20.4272H61.471L61.4225 20.432L61.3739 20.4272H58.0868C57.716 20.4272 57.4154 20.7279 57.4154 21.0986V23.1568C57.4154 23.528 57.716 23.8288 58.0868 23.8288H61.3739L61.4225 23.8235L61.471 23.8288H63.512C63.8828 23.8288 64.1834 23.528 64.1834 23.1568V21.0986C64.1834 20.7279 63.8828 20.4272 63.512 20.4272Z" fill="#093672"/>
<path d="M43.0361 20.521H40.9951L40.9466 20.5259L40.898 20.521H37.6109C37.2401 20.521 36.9397 20.8218 36.9397 21.1929V23.2507C36.9397 23.6219 37.2401 23.9227 37.6109 23.9227H40.898L40.9466 23.9174L40.9951 23.9227H43.0361C43.4071 23.9227 43.7075 23.6219 43.7075 23.2507V21.1929C43.7075 20.8218 43.4071 20.521 43.0361 20.521Z" fill="#093672"/>
<path d="M73.7218 20.4254H71.6788C71.3076 20.4254 71.0065 20.7265 71.0065 21.0978V23.158C71.0065 23.5295 71.3076 23.8302 71.6788 23.8302H73.7218C74.0931 23.8302 74.3942 23.5295 74.3942 23.158V21.0978C74.3942 20.7265 74.0931 20.4254 73.7218 20.4254Z" fill="#093672"/>
<path d="M51.3486 6.82593H53.3745C53.743 6.82593 54.0415 6.52743 54.0415 6.15937V4.11618C54.0415 3.74737 53.743 3.44924 53.3745 3.44924H51.3486C50.9798 3.44924 50.6816 3.74737 50.6816 4.11618V6.15937C50.6816 6.52743 50.9798 6.82593 51.3486 6.82593Z" fill="#093672"/>
<path d="M74.3507 9.09827L74.3338 9.04183C74.3269 9.01952 74.322 8.99665 74.313 8.97527C74.3023 8.9494 74.2879 8.92558 74.2744 8.90139L74.2545 8.86465C74.2352 8.83521 74.2125 8.80821 74.1894 8.78271L74.178 8.76883C74.1503 8.73921 74.1191 8.71277 74.0863 8.68896L74.0854 8.6884C73.9845 8.6149 73.8624 8.57027 73.7299 8.5624L73.6916 8.55883H71.6488L71.6102 8.5624C71.4776 8.57027 71.3558 8.6149 71.2547 8.6884L71.2538 8.68896C71.2209 8.71277 71.1904 8.73921 71.1624 8.76846L71.1506 8.78308C71.1272 8.80896 71.1049 8.8354 71.0856 8.86465L71.0659 8.90121C71.052 8.92558 71.0379 8.9494 71.0271 8.97527C71.0184 8.99665 71.013 9.01933 71.0066 9.04183L70.9894 9.09827C70.9809 9.14121 70.9763 9.18527 70.9763 9.23102V14.3132C70.9763 14.8729 70.5223 15.327 69.9624 15.327H64.2006L64.1908 15.3336L64.1914 9.23102C64.1914 8.87271 63.9103 8.58265 63.5574 8.5624H61.4378C61.0847 8.58265 60.8034 8.87271 60.8034 9.23102L60.8031 15.327L54.0437 15.3133L54.0403 15.3101V15.3311L54.0401 15.3325L54.048 9.1744C54.048 8.8099 53.751 8.51421 53.3848 8.51421H51.3287C50.9621 8.51421 50.6651 8.8099 50.6651 9.1744V19.3558C50.6651 19.906 50.2179 20.3509 49.6656 20.3509L47.6374 20.3419C47.4435 20.3419 47.2579 20.4186 47.1212 20.5549L45.8303 21.8048C45.6934 21.9411 45.6167 22.1256 45.6167 22.3181V23.0569C45.6167 23.4137 45.9068 23.7023 46.2653 23.7023H49.0391C51.7204 23.7023 53.9033 21.6319 54.0353 18.9971L54.0379 17.0085L54.0403 17.0087L55.5887 18.5571C55.6676 18.636 55.7749 18.6803 55.887 18.6803L63.0988 18.7129V18.7146H63.5186C63.8899 18.7146 64.1908 18.4136 64.1908 18.0424V17.0293L64.1936 17.029L65.7548 18.5903C65.8346 18.6698 65.9426 18.7146 66.0555 18.7146H69.2869C72.0047 18.7146 74.2168 16.5778 74.3513 13.8938C74.3591 13.8521 74.3638 9.23102 74.3638 9.23102C74.3638 9.18527 74.3591 9.14102 74.3507 9.09827Z" fill="#093672"/>
</g>
</g>
<defs>
<clipPath id="clip0_5_37">
<rect width="239" height="24" fill="white"/>
</clipPath>
<clipPath id="clip1_5_37">
<rect width="238.5" height="24" fill="white"/>
</clipPath>
</defs>
</svg>
